<?xml version="1.0" encoding="UTF-8" standalone="no"?>
<svg
   xmlns:ns2="http://www.iki.fi/pav/software/textext/"
   xmlns:dc="http://purl.org/dc/elements/1.1/"
   xmlns:cc="http://creativecommons.org/ns#"
   xmlns:rdf="http://www.w3.org/1999/02/22-rdf-syntax-ns#"
   xmlns:svg="http://www.w3.org/2000/svg"
   xmlns="http://www.w3.org/2000/svg"
   xmlns:xlink="http://www.w3.org/1999/xlink"
   xmlns:sodipodi="http://sodipodi.sourceforge.net/DTD/sodipodi-0.dtd"
   xmlns:inkscape="http://www.inkscape.org/namespaces/inkscape"
   width="210mm"
   height="297mm"
   viewBox="0 0 210 297"
   version="1.1"
   id="svg8"
   sodipodi:docname="desenhando.svg"
   inkscape:version="1.0.2-2 (e86c870879, 2021-01-15)">
  <defs
     id="defs2">
    <linearGradient
       inkscape:collect="always"
       id="linearGradient1427">
      <stop
         style="stop-color:#000000;stop-opacity:1;"
         offset="0"
         id="stop1423" />
      <stop
         style="stop-color:#000000;stop-opacity:0;"
         offset="1"
         id="stop1425" />
    </linearGradient>
    <marker
       style="overflow:visible;"
       id="Arrow1Mend"
       refX="0.0"
       refY="0.0"
       orient="auto"
       inkscape:stockid="Arrow1Mend"
       inkscape:isstock="true">
      <path
         transform="scale(0.4) rotate(180) translate(10,0)"
         style="fill-rule:evenodd;stroke:#000000;stroke-width:1pt;stroke-opacity:1;fill:#000000;fill-opacity:1"
         d="M 0.0,0.0 L 5.0,-5.0 L -12.5,0.0 L 5.0,5.0 L 0.0,0.0 z "
         id="path973" />
    </marker>
    <marker
       style="overflow:visible;"
       id="Arrow1Lend"
       refX="0.0"
       refY="0.0"
       orient="auto"
       inkscape:stockid="Arrow1Lend"
       inkscape:isstock="true">
      <path
         transform="scale(0.8) rotate(180) translate(12.5,0)"
         style="fill-rule:evenodd;stroke:#000000;stroke-width:1pt;stroke-opacity:1;fill:#000000;fill-opacity:1"
         d="M 0.0,0.0 L 5.0,-5.0 L -12.5,0.0 L 5.0,5.0 L 0.0,0.0 z "
         id="path967" />
    </marker>
    <linearGradient
       inkscape:collect="always"
       xlink:href="#linearGradient1427"
       id="linearGradient1451"
       x1="-0.0001255"
       y1="4.822"
       x2="7.4143755"
       y2="4.822"
       gradientUnits="userSpaceOnUse" />
  </defs>
  <sodipodi:namedview
     id="base"
     pagecolor="#ffffff"
     bordercolor="#666666"
     borderopacity="1.0"
     inkscape:pageopacity="0.0"
     inkscape:pageshadow="2"
     inkscape:zoom="1.4"
     inkscape:cx="123.51331"
     inkscape:cy="312.92941"
     inkscape:document-units="mm"
     inkscape:current-layer="layer1"
     inkscape:document-rotation="0"
     showgrid="false"
     inkscape:snap-intersection-paths="true"
     inkscape:snap-smooth-nodes="true"
     inkscape:window-width="1512"
     inkscape:window-height="1040"
     inkscape:window-x="26"
     inkscape:window-y="0"
     inkscape:window-maximized="0"
     inkscape:snap-midpoints="true">
    <inkscape:grid
       type="xygrid"
       id="grid891" />
  </sodipodi:namedview>
  <metadata
     id="metadata5">
    <rdf:RDF>
      <cc:Work
         rdf:about="">
        <dc:format>image/svg+xml</dc:format>
        <dc:type
           rdf:resource="http://purl.org/dc/dcmitype/StillImage" />
        <dc:title></dc:title>
      </cc:Work>
    </rdf:RDF>
  </metadata>
  <g
     inkscape:label="Layer 1"
     inkscape:groupmode="layer"
     id="layer1">
    <ellipse
       style="opacity:0.996;fill:none;stroke:#000000;stroke-width:0.17;stroke-dasharray:none;stroke-miterlimit:4;stroke-dashoffset:0;stroke-opacity:1"
       id="path833"
       cx="68.861046"
       cy="89.818771"
       rx="3.7417734"
       ry="15.768902"
       inkscape:export-xdpi="1023"
       inkscape:export-ydpi="1023" />
    <path
       style="fill:none;stroke:#000000;stroke-width:0.17;stroke-linecap:butt;stroke-linejoin:miter;stroke-opacity:1;stroke-miterlimit:4;stroke-dasharray:none"
       d="M 68.791667,74.083333 H 86.462055"
       id="path855"
       inkscape:export-xdpi="1023"
       inkscape:export-ydpi="1023" />
    <path
       style="fill:none;stroke:#000000;stroke-width:0.17;stroke-linecap:butt;stroke-linejoin:miter;stroke-opacity:1;stroke-miterlimit:4;stroke-dasharray:none"
       d="m 68.861043,105.58767 17.601012,0.0335"
       id="path857"
       inkscape:export-xdpi="1023"
       inkscape:export-ydpi="1023" />
    <ellipse
       style="opacity:0.996;fill:none;stroke:#000000;stroke-width:0.17;stroke-dasharray:none;stroke-miterlimit:4;stroke-dashoffset:0;stroke-opacity:1;fill-opacity:1"
       id="path833-7"
       cx="33.992741"
       cy="89.818771"
       rx="3.7417734"
       ry="15.768902"
       inkscape:export-xdpi="1023"
       inkscape:export-ydpi="1023" />
    <path
       style="fill:none;stroke:#000000;stroke-width:0.17;stroke-linecap:butt;stroke-linejoin:miter;stroke-opacity:1;stroke-miterlimit:4;stroke-dasharray:none"
       d="M 33.923362,74.083333 H 51.59375"
       id="path855-1"
       inkscape:export-xdpi="1023"
       inkscape:export-ydpi="1023" />
    <path
       style="fill:none;stroke:#000000;stroke-width:0.17;stroke-linecap:butt;stroke-linejoin:miter;stroke-opacity:1;stroke-miterlimit:4;stroke-dasharray:none"
       d="m 33.992738,105.58767 17.601012,0.0335"
       id="path857-2"
       inkscape:export-xdpi="1023"
       inkscape:export-ydpi="1023" />
    <rect
       style="opacity:0.996;fill:none;stroke:#000000;stroke-width:0.17;stroke-dasharray:none;stroke-miterlimit:4;stroke-dashoffset:0;stroke-opacity:1"
       id="rect893"
       width="3.96875"
       height="19.84375"
       x="58.208332"
       y="72.760414"
       inkscape:export-xdpi="1023"
       inkscape:export-ydpi="1023" />
    <rect
       style="opacity:0.996;fill:#000000;stroke:#000000;stroke-width:0.17;stroke-dasharray:none;stroke-opacity:1;fill-opacity:1;stroke-miterlimit:4;stroke-dashoffset:0"
       id="rect895"
       width="3.96875"
       height="5.2916665"
       x="58.208332"
       y="87.3125"
       inkscape:export-xdpi="1023"
       inkscape:export-ydpi="1023" />
    <path
       id="path833-8-0"
       style="opacity:0.996;fill:none;stroke:#000000;stroke-width:0.17;stroke-miterlimit:4;stroke-dasharray:none;stroke-dashoffset:0;stroke-opacity:1"
       d="m 85.989583,105.62114 c 2.066525,0 3.741774,-7.05998 3.741773,-15.768905 0,-8.708923 -1.675249,-15.768901 -3.741773,-15.768902"
       sodipodi:nodetypes="csc"
       inkscape:export-xdpi="1023"
       inkscape:export-ydpi="1023" />
    <path
       id="path833-8-0-1"
       style="opacity:0.996;fill:none;stroke:#000000;stroke-width:0.17;stroke-miterlimit:4;stroke-dasharray:none;stroke-dashoffset:0;stroke-opacity:1"
       d="m 51.59375,105.62114 c 2.066525,0 3.741774,-7.05998 3.741773,-15.768905 0,-8.708923 -1.675249,-15.768901 -3.741773,-15.768902"
       sodipodi:nodetypes="csc"
       inkscape:export-xdpi="1023"
       inkscape:export-ydpi="1023" />
    <path
       style="fill:none;stroke:#000000;stroke-width:0.17;stroke-linecap:butt;stroke-linejoin:miter;stroke-opacity:1;marker-end:url(#Arrow1Mend);stroke-miterlimit:4;stroke-dasharray:none"
       d="m 58.208333,103.1875 h 5.291666"
       id="path962"
       inkscape:export-xdpi="1023"
       inkscape:export-ydpi="1023" />
    <g
       transform="matrix(0.314968,0,0,0.314968,59.268838,98.853879)"
       ns2:version="1.3.1"
       ns2:texconverter="pdflatex"
       ns2:pdfconverter="inkscape"
       ns2:text="$\\vec{B}$"
       ns2:preamble="C:\Users\Alexandre\AppData\Roaming\inkscape\extensions\textext\default_packages.tex"
       ns2:scale="0.8928211479406631"
       ns2:alignment="middle center"
       ns2:jacobian_sqrt="0.314968"
       id="g1320"
       style="stroke:#000000;stroke-opacity:1"
       inkscape:export-xdpi="1023"
       inkscape:export-ydpi="1023">
      <defs
         id="id-6d84cf24-06bf-461e-a19c-81a2f81e3d33"
         style="stroke:url(#linearGradient1451)">
        <g
           id="id-5dbb50ca-81cf-43b5-ab2e-ed124012c443"
           style="stroke:url(#linearGradient1451)">
          <symbol
             overflow="visible"
             id="id-df83d581-2ffa-4e00-ab05-8ca1daadc5f5"
             style="stroke:url(#linearGradient1451)">
            <path
               style="stroke:url(#linearGradient1451);stroke-width:0"
               d=""
               id="id-fb2aa7c4-3388-4884-8cc3-12afe7961775" />
          </symbol>
          <symbol
             overflow="visible"
             id="id-3e50fce1-fd04-4c25-8488-08db96cdb0e1"
             style="stroke:url(#linearGradient1451)">
            <path
               style="stroke:url(#linearGradient1451);stroke-width:0"
               d="m 5.359375,-5.9375 c -0.140625,0.140625 -0.46875,0.421875 -0.46875,0.59375 0,0.09375 0.09375,0.203125 0.1875,0.203125 0.09375,0 0.140625,-0.078125 0.203125,-0.140625 C 5.390625,-5.421875 5.625,-5.703125 6.0625,-5.921875 6.125,-5.96875 6.234375,-6.015625 6.234375,-6.125 6.234375,-6.234375 6.15625,-6.28125 6.09375,-6.328125 5.875,-6.484375 5.765625,-6.65625 5.6875,-6.890625 5.65625,-6.984375 5.625,-7.125 5.484375,-7.125 c -0.140625,0 -0.203125,0.140625 -0.203125,0.21875 0,0.046875 0.078125,0.359375 0.234375,0.578125 H 2.15625 c -0.15625,0 -0.34375,0 -0.34375,0.203125 0,0.1875 0.1875,0.1875 0.34375,0.1875 z m 0,0"
               id="id-ef93d9ff-0c43-4ca2-9ddb-d03344862f57" />
          </symbol>
          <symbol
             overflow="visible"
             id="id-4ae83580-e99f-49f2-8b37-a2d017080fa1"
             style="stroke:url(#linearGradient1451)">
            <path
               style="stroke:url(#linearGradient1451);stroke-width:0"
               d="M 1.59375,-0.78125 C 1.5,-0.390625 1.46875,-0.3125 0.6875,-0.3125 c -0.171875,0 -0.265625,0 -0.265625,0.203125 C 0.421875,0 0.515625,0 0.6875,0 H 4.25 C 5.828125,0 7,-1.171875 7,-2.15625 7,-2.875 6.421875,-3.453125 5.453125,-3.5625 6.484375,-3.75 7.53125,-4.484375 7.53125,-5.4375 c 0,-0.734375 -0.65625,-1.375 -1.84375,-1.375 H 2.328125 c -0.1875,0 -0.28125,0 -0.28125,0.203125 0,0.109375 0.09375,0.109375 0.28125,0.109375 0.015625,0 0.203125,0 0.375,0.015625 0.171875,0.03125 0.265625,0.03125 0.265625,0.171875 0,0.03125 -0.015625,0.0625 -0.03125,0.1875 z m 1.5,-2.875 0.625,-2.46875 C 3.8125,-6.46875 3.828125,-6.5 4.25,-6.5 h 1.296875 c 0.875,0 1.078125,0.59375 1.078125,1.03125 0,0.875 -0.859375,1.8125 -2.0625,1.8125 z m -0.4375,3.34375 c -0.140625,0 -0.15625,0 -0.21875,0 -0.109375,-0.015625 -0.140625,-0.03125 -0.140625,-0.109375 0,-0.03125 0,-0.046875 0.0625,-0.21875 l 0.6875,-2.78125 h 1.875 c 0.953125,0 1.15625,0.734375 1.15625,1.15625 C 6.078125,-1.28125 5.1875,-0.3125 4,-0.3125 Z m 0,0"
               id="id-f249e066-2e6c-4d68-abf6-173fcbb01c43" />
          </symbol>
        </g>
      </defs>
      <g
         id="id-a5b53df9-3b1f-476f-850f-988cb97ca883"
         transform="translate(-149.134,-125.121)"
         style="stroke:#000000;stroke-opacity:1">
        <g
           style="fill:#000000;fill-opacity:1;stroke:#000000;stroke-opacity:1"
           id="id-421d76a6-e53f-43c8-9505-d7550baa5d31">
          <g
             transform="translate(150.314,132.246)"
             id="g1312"
             style="stroke:#000000;stroke-opacity:1">
            <path
               style="stroke:#000000;stroke-width:0;stroke-opacity:1"
               d="m 5.359375,-5.9375 c -0.140625,0.140625 -0.46875,0.421875 -0.46875,0.59375 0,0.09375 0.09375,0.203125 0.1875,0.203125 0.09375,0 0.140625,-0.078125 0.203125,-0.140625 C 5.390625,-5.421875 5.625,-5.703125 6.0625,-5.921875 6.125,-5.96875 6.234375,-6.015625 6.234375,-6.125 6.234375,-6.234375 6.15625,-6.28125 6.09375,-6.328125 5.875,-6.484375 5.765625,-6.65625 5.6875,-6.890625 5.65625,-6.984375 5.625,-7.125 5.484375,-7.125 c -0.140625,0 -0.203125,0.140625 -0.203125,0.21875 0,0.046875 0.078125,0.359375 0.234375,0.578125 H 2.15625 c -0.15625,0 -0.34375,0 -0.34375,0.203125 0,0.1875 0.1875,0.1875 0.34375,0.1875 z m 0,0"
               id="id-dc2d218a-d9ee-45fa-8e79-fb19e79ed1cd" />
          </g>
        </g>
        <g
           style="fill:#000000;fill-opacity:1;stroke:#000000;stroke-opacity:1"
           id="id-fe2d3712-af0c-4149-9f85-559c1c524af7">
          <g
             transform="translate(148.712,134.765)"
             id="g1316"
             style="stroke:#000000;stroke-opacity:1">
            <path
               style="stroke:#000000;stroke-width:0;stroke-opacity:1"
               d="M 1.59375,-0.78125 C 1.5,-0.390625 1.46875,-0.3125 0.6875,-0.3125 c -0.171875,0 -0.265625,0 -0.265625,0.203125 C 0.421875,0 0.515625,0 0.6875,0 H 4.25 C 5.828125,0 7,-1.171875 7,-2.15625 7,-2.875 6.421875,-3.453125 5.453125,-3.5625 6.484375,-3.75 7.53125,-4.484375 7.53125,-5.4375 c 0,-0.734375 -0.65625,-1.375 -1.84375,-1.375 H 2.328125 c -0.1875,0 -0.28125,0 -0.28125,0.203125 0,0.109375 0.09375,0.109375 0.28125,0.109375 0.015625,0 0.203125,0 0.375,0.015625 0.171875,0.03125 0.265625,0.03125 0.265625,0.171875 0,0.03125 -0.015625,0.0625 -0.03125,0.1875 z m 1.5,-2.875 0.625,-2.46875 C 3.8125,-6.46875 3.828125,-6.5 4.25,-6.5 h 1.296875 c 0.875,0 1.078125,0.59375 1.078125,1.03125 0,0.875 -0.859375,1.8125 -2.0625,1.8125 z m -0.4375,3.34375 c -0.140625,0 -0.15625,0 -0.21875,0 -0.109375,-0.015625 -0.140625,-0.03125 -0.140625,-0.109375 0,-0.03125 0,-0.046875 0.0625,-0.21875 l 0.6875,-2.78125 h 1.875 c 0.953125,0 1.15625,0.734375 1.15625,1.15625 C 6.078125,-1.28125 5.1875,-0.3125 4,-0.3125 Z m 0,0"
               id="id-0b0a718a-7859-41d7-97b2-ab2f8886b46d" />
          </g>
        </g>
      </g>
    </g>
    <path
       style="fill:none;stroke:#000000;stroke-width:0.17;stroke-linecap:butt;stroke-linejoin:miter;stroke-opacity:1;stroke-miterlimit:4;stroke-dasharray:none"
       d="M 60.192708,72.760413 V 56.50744"
       id="path1341"
       inkscape:export-xdpi="1023"
       inkscape:export-ydpi="1023" />
    <g
       id="g1741"
       transform="translate(22.962055,-0.4724718)"
       inkscape:export-xdpi="1023"
       inkscape:export-ydpi="1023">
      <rect
         style="opacity:0.996;fill:none;fill-opacity:1;stroke:#000000;stroke-width:0.17;stroke-miterlimit:4;stroke-dasharray:none;stroke-dashoffset:0;stroke-opacity:1"
         id="rect1577"
         width="11.339286"
         height="11.339286"
         x="31.56101"
         y="45.640625" />
      <g
         transform="matrix(0.23033051,0,0,0.23033051,33.278614,50.27915)"
         ns2:version="1.3.1"
         ns2:texconverter="pdflatex"
         ns2:pdfconverter="inkscape"
         ns2:text="Balan\xe7a"
         ns2:preamble="C:\Users\Alexandre\AppData\Roaming\inkscape\extensions\textext\default_packages.tex"
         ns2:scale="0.8928211479406631"
         ns2:alignment="middle center"
         ns2:jacobian_sqrt="0.314968"
         id="g1663">
        <defs
           id="id-639feec4-9f9a-40d5-9f34-b741ed01a86b">
          <g
             id="id-15a4dcab-365c-4bfe-bb9f-b0963bf2eaa9">
            <symbol
               overflow="visible"
               id="id-7bd3afeb-96b8-49e6-b471-f3f72dd4a7e7">
              <path
                 style="stroke:none;stroke-width:0"
                 d=""
                 id="id-52ebd2d9-6cf8-4850-8232-e1753bef2bc6" />
            </symbol>
            <symbol
               overflow="visible"
               id="id-93b10df9-49b0-46d4-b30f-d27a339dea6e">
              <path
                 style="stroke:none;stroke-width:0"
                 d="m 2.21875,-3.65625 v -2.4375 C 2.21875,-6.4375 2.234375,-6.5 2.703125,-6.5 H 3.9375 c 0.96875,0 1.3125,0.84375 1.3125,1.375 0,0.640625 -0.484375,1.46875 -1.59375,1.46875 z M 4.5625,-3.5625 C 5.53125,-3.75 6.21875,-4.390625 6.21875,-5.125 6.21875,-5.984375 5.296875,-6.8125 4,-6.8125 H 0.359375 V -6.5 H 0.59375 c 0.765625,0 0.796875,0.109375 0.796875,0.46875 v 5.25 c 0,0.359375 -0.03125,0.46875 -0.796875,0.46875 H 0.359375 V 0 h 3.90625 c 1.328125,0 2.21875,-0.890625 2.21875,-1.828125 0,-0.859375 -0.8125,-1.609375 -1.921875,-1.734375 z m -0.609375,3.25 h -1.25 c -0.46875,0 -0.484375,-0.0625 -0.484375,-0.390625 v -2.71875 h 1.875 C 5.078125,-3.421875 5.5,-2.5 5.5,-1.828125 5.5,-1.125 4.96875,-0.3125 3.953125,-0.3125 Z m 0,0"
                 id="id-a3eca6c1-661a-4f54-9f17-357cd1ebaf8f" />
            </symbol>
            <symbol
               overflow="visible"
               id="id-0f01cca8-51c8-4bcf-be95-b06dbf071d76">
              <path
                 style="stroke:none;stroke-width:0"
                 d="m 3.3125,-0.75 c 0.046875,0.390625 0.3125,0.8125 0.78125,0.8125 0.21875,0 0.828125,-0.140625 0.828125,-0.953125 v -0.5625 h -0.25 v 0.5625 c 0,0.578125 -0.25,0.640625 -0.359375,0.640625 -0.328125,0 -0.375,-0.453125 -0.375,-0.5 v -1.984375 c 0,-0.421875 0,-0.8125 -0.359375,-1.1875 C 3.1875,-4.3125 2.6875,-4.46875 2.21875,-4.46875 c -0.828125,0 -1.515625,0.46875 -1.515625,1.125 0,0.296875 0.203125,0.46875 0.46875,0.46875 0.28125,0 0.453125,-0.203125 0.453125,-0.453125 0,-0.125 -0.046875,-0.453125 -0.515625,-0.453125 C 1.390625,-4.140625 1.875,-4.25 2.1875,-4.25 c 0.5,0 1.0625,0.390625 1.0625,1.28125 v 0.359375 c -0.515625,0.03125 -1.203125,0.0625 -1.828125,0.359375 -0.75,0.34375 -1,0.859375 -1,1.296875 0,0.8125 0.96875,1.0625 1.59375,1.0625 0.65625,0 1.109375,-0.40625 1.296875,-0.859375 z M 3.25,-2.390625 v 1 c 0,0.9375 -0.71875,1.28125 -1.171875,1.28125 -0.484375,0 -0.890625,-0.34375 -0.890625,-0.84375 0,-0.546875 0.421875,-1.375 2.0625,-1.4375 z m 0,0"
                 id="id-4b84838c-12c8-4df3-a702-b413a9ed035d" />
            </symbol>
            <symbol
               overflow="visible"
               id="id-f966d380-159d-4fb8-a283-04f0a4e4e706">
              <path
                 style="stroke:none;stroke-width:0"
                 d="M 1.765625,-6.921875 0.328125,-6.8125 V -6.5 c 0.703125,0 0.78125,0.0625 0.78125,0.5625 V -0.75 c 0,0.4375 -0.109375,0.4375 -0.78125,0.4375 V 0 C 0.65625,-0.015625 1.1875,-0.03125 1.4375,-0.03125 c 0.25,0 0.734375,0.015625 1.109375,0.03125 v -0.3125 c -0.671875,0 -0.78125,0 -0.78125,-0.4375 z m 0,0"
                 id="id-ddbb55e4-0691-4585-b030-5a419244b309" />
            </symbol>
            <symbol
               overflow="visible"
               id="id-d9a71d50-e5d1-431b-a9ec-1823b640e750">
              <path
                 style="stroke:none;stroke-width:0"
                 d="M 1.09375,-3.421875 V -0.75 c 0,0.4375 -0.109375,0.4375 -0.78125,0.4375 V 0 c 0.359375,-0.015625 0.859375,-0.03125 1.140625,-0.03125 0.25,0 0.765625,0.015625 1.109375,0.03125 v -0.3125 c -0.671875,0 -0.78125,0 -0.78125,-0.4375 V -2.59375 C 1.78125,-3.625 2.5,-4.1875 3.125,-4.1875 c 0.640625,0 0.75,0.53125 0.75,1.109375 V -0.75 c 0,0.4375 -0.109375,0.4375 -0.78125,0.4375 V 0 c 0.34375,-0.015625 0.859375,-0.03125 1.125,-0.03125 0.25,0 0.78125,0.015625 1.109375,0.03125 v -0.3125 c -0.515625,0 -0.765625,0 -0.765625,-0.296875 v -1.90625 c 0,-0.859375 0,-1.15625 -0.3125,-1.515625 -0.140625,-0.171875 -0.46875,-0.375 -1.046875,-0.375 C 2.46875,-4.40625 2,-3.984375 1.71875,-3.359375 V -4.40625 L 0.3125,-4.296875 v 0.3125 c 0.703125,0 0.78125,0.0625 0.78125,0.5625 z m 0,0"
                 id="id-eae4920d-aede-4268-845a-e1d386ee86c2" />
            </symbol>
            <symbol
               overflow="visible"
               id="id-27a5b020-625a-414a-a368-42faaab741f7">
              <path
                 style="stroke:none;stroke-width:0"
                 d="m 2.828125,0.21875 h -0.6875 V 0.703125 C 2.6875,0.71875 2.96875,0.953125 2.96875,1.25 c 0,0.390625 -0.421875,0.546875 -1.359375,0.546875 H 1.3125 V 2.03125 H 1.75 c 0.03125,0 0.703125,0 1.171875,-0.125 C 3.328125,1.828125 3.65625,1.640625 3.65625,1.25 3.65625,0.828125 3.296875,0.625 2.828125,0.546875 Z m 0,0"
                 id="id-d6e2b37b-3c55-4f92-a3f2-df2e542b1e42" />
            </symbol>
            <symbol
               overflow="visible"
               id="id-e6d0b2b3-da64-4d29-b0e2-5b0097d97f19">
              <path
                 style="stroke:none;stroke-width:0"
                 d="m 1.171875,-2.171875 c 0,-1.625 0.8125,-2.046875 1.34375,-2.046875 0.09375,0 0.71875,0.015625 1.0625,0.375 -0.40625,0.03125 -0.46875,0.328125 -0.46875,0.453125 0,0.265625 0.1875,0.453125 0.453125,0.453125 0.265625,0 0.46875,-0.15625 0.46875,-0.46875 0,-0.671875 -0.765625,-1.0625 -1.53125,-1.0625 -1.25,0 -2.15625,1.078125 -2.15625,2.3125 0,1.28125 0.984375,2.265625 2.140625,2.265625 1.328125,0 1.65625,-1.203125 1.65625,-1.296875 0,-0.09375 -0.109375,-0.09375 -0.140625,-0.09375 -0.078125,0 -0.109375,0.03125 -0.125,0.09375 -0.28125,0.921875 -0.9375,1.046875 -1.296875,1.046875 -0.53125,0 -1.40625,-0.421875 -1.40625,-2.03125 z m 0,0"
                 id="id-46b090eb-9962-4d9c-9e0a-6e5eb6b70e82" />
            </symbol>
          </g>
        </defs>
        <g
           id="id-6f11ed30-8be8-4753-9be1-e27f828616bd"
           transform="translate(-149.071,-127.843)">
          <g
             style="fill:#000000;fill-opacity:1"
             id="id-b1974126-96e5-423f-b8d9-000340457188">
            <g
               transform="translate(148.712,134.765)"
               id="g1637">
              <path
                 style="stroke:none;stroke-width:0"
                 d="m 2.21875,-3.65625 v -2.4375 C 2.21875,-6.4375 2.234375,-6.5 2.703125,-6.5 H 3.9375 c 0.96875,0 1.3125,0.84375 1.3125,1.375 0,0.640625 -0.484375,1.46875 -1.59375,1.46875 z M 4.5625,-3.5625 C 5.53125,-3.75 6.21875,-4.390625 6.21875,-5.125 6.21875,-5.984375 5.296875,-6.8125 4,-6.8125 H 0.359375 V -6.5 H 0.59375 c 0.765625,0 0.796875,0.109375 0.796875,0.46875 v 5.25 c 0,0.359375 -0.03125,0.46875 -0.796875,0.46875 H 0.359375 V 0 h 3.90625 c 1.328125,0 2.21875,-0.890625 2.21875,-1.828125 0,-0.859375 -0.8125,-1.609375 -1.921875,-1.734375 z m -0.609375,3.25 h -1.25 c -0.46875,0 -0.484375,-0.0625 -0.484375,-0.390625 v -2.71875 h 1.875 C 5.078125,-3.421875 5.5,-2.5 5.5,-1.828125 5.5,-1.125 4.96875,-0.3125 3.953125,-0.3125 Z m 0,0"
                 id="id-fb4cd150-f9e6-4c52-90cd-733cf4dcb0b6" />
            </g>
            <g
               transform="translate(155.769,134.765)"
               id="g1640">
              <path
                 style="stroke:none;stroke-width:0"
                 d="m 3.3125,-0.75 c 0.046875,0.390625 0.3125,0.8125 0.78125,0.8125 0.21875,0 0.828125,-0.140625 0.828125,-0.953125 v -0.5625 h -0.25 v 0.5625 c 0,0.578125 -0.25,0.640625 -0.359375,0.640625 -0.328125,0 -0.375,-0.453125 -0.375,-0.5 v -1.984375 c 0,-0.421875 0,-0.8125 -0.359375,-1.1875 C 3.1875,-4.3125 2.6875,-4.46875 2.21875,-4.46875 c -0.828125,0 -1.515625,0.46875 -1.515625,1.125 0,0.296875 0.203125,0.46875 0.46875,0.46875 0.28125,0 0.453125,-0.203125 0.453125,-0.453125 0,-0.125 -0.046875,-0.453125 -0.515625,-0.453125 C 1.390625,-4.140625 1.875,-4.25 2.1875,-4.25 c 0.5,0 1.0625,0.390625 1.0625,1.28125 v 0.359375 c -0.515625,0.03125 -1.203125,0.0625 -1.828125,0.359375 -0.75,0.34375 -1,0.859375 -1,1.296875 0,0.8125 0.96875,1.0625 1.59375,1.0625 0.65625,0 1.109375,-0.40625 1.296875,-0.859375 z M 3.25,-2.390625 v 1 c 0,0.9375 -0.71875,1.28125 -1.171875,1.28125 -0.484375,0 -0.890625,-0.34375 -0.890625,-0.84375 0,-0.546875 0.421875,-1.375 2.0625,-1.4375 z m 0,0"
                 id="id-7fb8ad5c-4ae2-4d4e-ae30-95489c5e35c1" />
            </g>
            <g
               transform="translate(160.75,134.765)"
               id="g1643">
              <path
                 style="stroke:none;stroke-width:0"
                 d="M 1.765625,-6.921875 0.328125,-6.8125 V -6.5 c 0.703125,0 0.78125,0.0625 0.78125,0.5625 V -0.75 c 0,0.4375 -0.109375,0.4375 -0.78125,0.4375 V 0 C 0.65625,-0.015625 1.1875,-0.03125 1.4375,-0.03125 c 0.25,0 0.734375,0.015625 1.109375,0.03125 v -0.3125 c -0.671875,0 -0.78125,0 -0.78125,-0.4375 z m 0,0"
                 id="id-9ef15e7b-1a21-4750-ad1e-5e43c7b00bb8" />
            </g>
            <g
               transform="translate(163.517,134.765)"
               id="g1646">
              <path
                 style="stroke:none;stroke-width:0"
                 d="m 3.3125,-0.75 c 0.046875,0.390625 0.3125,0.8125 0.78125,0.8125 0.21875,0 0.828125,-0.140625 0.828125,-0.953125 v -0.5625 h -0.25 v 0.5625 c 0,0.578125 -0.25,0.640625 -0.359375,0.640625 -0.328125,0 -0.375,-0.453125 -0.375,-0.5 v -1.984375 c 0,-0.421875 0,-0.8125 -0.359375,-1.1875 C 3.1875,-4.3125 2.6875,-4.46875 2.21875,-4.46875 c -0.828125,0 -1.515625,0.46875 -1.515625,1.125 0,0.296875 0.203125,0.46875 0.46875,0.46875 0.28125,0 0.453125,-0.203125 0.453125,-0.453125 0,-0.125 -0.046875,-0.453125 -0.515625,-0.453125 C 1.390625,-4.140625 1.875,-4.25 2.1875,-4.25 c 0.5,0 1.0625,0.390625 1.0625,1.28125 v 0.359375 c -0.515625,0.03125 -1.203125,0.0625 -1.828125,0.359375 -0.75,0.34375 -1,0.859375 -1,1.296875 0,0.8125 0.96875,1.0625 1.59375,1.0625 0.65625,0 1.109375,-0.40625 1.296875,-0.859375 z M 3.25,-2.390625 v 1 c 0,0.9375 -0.71875,1.28125 -1.171875,1.28125 -0.484375,0 -0.890625,-0.34375 -0.890625,-0.84375 0,-0.546875 0.421875,-1.375 2.0625,-1.4375 z m 0,0"
                 id="id-226c9131-5bf1-4360-b8e5-5a50e9dada5f" />
            </g>
            <g
               transform="translate(168.499,134.765)"
               id="g1649">
              <path
                 style="stroke:none;stroke-width:0"
                 d="M 1.09375,-3.421875 V -0.75 c 0,0.4375 -0.109375,0.4375 -0.78125,0.4375 V 0 c 0.359375,-0.015625 0.859375,-0.03125 1.140625,-0.03125 0.25,0 0.765625,0.015625 1.109375,0.03125 v -0.3125 c -0.671875,0 -0.78125,0 -0.78125,-0.4375 V -2.59375 C 1.78125,-3.625 2.5,-4.1875 3.125,-4.1875 c 0.640625,0 0.75,0.53125 0.75,1.109375 V -0.75 c 0,0.4375 -0.109375,0.4375 -0.78125,0.4375 V 0 c 0.34375,-0.015625 0.859375,-0.03125 1.125,-0.03125 0.25,0 0.78125,0.015625 1.109375,0.03125 v -0.3125 c -0.515625,0 -0.765625,0 -0.765625,-0.296875 v -1.90625 c 0,-0.859375 0,-1.15625 -0.3125,-1.515625 -0.140625,-0.171875 -0.46875,-0.375 -1.046875,-0.375 C 2.46875,-4.40625 2,-3.984375 1.71875,-3.359375 V -4.40625 L 0.3125,-4.296875 v 0.3125 c 0.703125,0 0.78125,0.0625 0.78125,0.5625 z m 0,0"
                 id="id-75681888-934d-4838-8bcb-a47a2529f9b3" />
            </g>
            <g
               transform="translate(174.034,134.765)"
               id="g1652">
              <path
                 style="stroke:none;stroke-width:0"
                 d="m 2.828125,0.21875 h -0.6875 V 0.703125 C 2.6875,0.71875 2.96875,0.953125 2.96875,1.25 c 0,0.390625 -0.421875,0.546875 -1.359375,0.546875 H 1.3125 V 2.03125 H 1.75 c 0.03125,0 0.703125,0 1.171875,-0.125 C 3.328125,1.828125 3.65625,1.640625 3.65625,1.25 3.65625,0.828125 3.296875,0.625 2.828125,0.546875 Z m 0,0"
                 id="id-124af15e-4294-4941-8c8f-068ed013fdc8" />
            </g>
          </g>
          <g
             style="fill:#000000;fill-opacity:1"
             id="id-c2856cf2-8cf8-44d7-b272-eb2d606c694e">
            <g
               transform="translate(174.038,134.765)"
               id="g1656">
              <path
                 style="stroke:none;stroke-width:0"
                 d="m 1.171875,-2.171875 c 0,-1.625 0.8125,-2.046875 1.34375,-2.046875 0.09375,0 0.71875,0.015625 1.0625,0.375 -0.40625,0.03125 -0.46875,0.328125 -0.46875,0.453125 0,0.265625 0.1875,0.453125 0.453125,0.453125 0.265625,0 0.46875,-0.15625 0.46875,-0.46875 0,-0.671875 -0.765625,-1.0625 -1.53125,-1.0625 -1.25,0 -2.15625,1.078125 -2.15625,2.3125 0,1.28125 0.984375,2.265625 2.140625,2.265625 1.328125,0 1.65625,-1.203125 1.65625,-1.296875 0,-0.09375 -0.109375,-0.09375 -0.140625,-0.09375 -0.078125,0 -0.109375,0.03125 -0.125,0.09375 -0.28125,0.921875 -0.9375,1.046875 -1.296875,1.046875 -0.53125,0 -1.40625,-0.421875 -1.40625,-2.03125 z m 0,0"
                 id="id-a995b354-625e-495d-99e3-6174788a2358" />
            </g>
            <g
               transform="translate(178.465,134.765)"
               id="g1659">
              <path
                 style="stroke:none;stroke-width:0"
                 d="m 3.3125,-0.75 c 0.046875,0.390625 0.3125,0.8125 0.78125,0.8125 0.21875,0 0.828125,-0.140625 0.828125,-0.953125 v -0.5625 h -0.25 v 0.5625 c 0,0.578125 -0.25,0.640625 -0.359375,0.640625 -0.328125,0 -0.375,-0.453125 -0.375,-0.5 v -1.984375 c 0,-0.421875 0,-0.8125 -0.359375,-1.1875 C 3.1875,-4.3125 2.6875,-4.46875 2.21875,-4.46875 c -0.828125,0 -1.515625,0.46875 -1.515625,1.125 0,0.296875 0.203125,0.46875 0.46875,0.46875 0.28125,0 0.453125,-0.203125 0.453125,-0.453125 0,-0.125 -0.046875,-0.453125 -0.515625,-0.453125 C 1.390625,-4.140625 1.875,-4.25 2.1875,-4.25 c 0.5,0 1.0625,0.390625 1.0625,1.28125 v 0.359375 c -0.515625,0.03125 -1.203125,0.0625 -1.828125,0.359375 -0.75,0.34375 -1,0.859375 -1,1.296875 0,0.8125 0.96875,1.0625 1.59375,1.0625 0.65625,0 1.109375,-0.40625 1.296875,-0.859375 z M 3.25,-2.390625 v 1 c 0,0.9375 -0.71875,1.28125 -1.171875,1.28125 -0.484375,0 -0.890625,-0.34375 -0.890625,-0.84375 0,-0.546875 0.421875,-1.375 2.0625,-1.4375 z m 0,0"
                 id="id-1f8de156-fb92-406d-bfa8-b0bf3d3736e1" />
            </g>
          </g>
        </g>
      </g>
    </g>
  </g>
</svg>
